<svg xmlns="http://www.w3.org/2000/svg" width="18" height="23" viewBox="0 0 18 23" fill="none">
<g clip-path="url(#clip0_17_42)">
<path d="M15 4.30322H3C2.17157 4.30322 1.5 5.12079 1.5 6.12932V17.0859C1.5 18.0944 2.17157 18.912 3 18.912H15C15.8284 18.912 16.5 18.0944 16.5 17.0859V6.12932C16.5 5.12079 15.8284 4.30322 15 4.30322ZM15 10.6946L10.2375 14.7576C9.49428 15.3901 8.50571 15.3901 7.7625 14.7576L3 10.6946V8.77716L8.5125 13.4794C8.80566 13.7271 9.19434 13.7271 9.4875 13.4794L15 8.77716V10.6946Z" fill="#D4D4D4"/>
</g>
<defs>
<clipPath id="clip0_17_42">
<rect width="18" height="21.9132" fill="white" transform="translate(0 0.650879)"/>
</clipPath>
</defs>
</svg>