<svg xmlns="http://www.w3.org/2000/svg" width="18" height="18" viewBox="0 0 18 18" fill="none">
<g clip-path="url(#clip0_17_38)">
<path d="M12.75 15.7498C11.5097 15.7488 10.2887 15.4422 9.195 14.8573L8.8575 14.6698C6.52556 13.4161 4.61377 11.5043 3.36 9.17234L3.1725 8.83484C2.57237 7.73486 2.25535 6.50286 2.25 5.24984V4.74734C2.24968 4.34755 2.40897 3.96418 2.6925 3.68234L3.96 2.41484C4.08309 2.29078 4.25685 2.23099 4.43022 2.25303C4.60358 2.27507 4.75686 2.37643 4.845 2.52734L6.5325 5.42234C6.70315 5.717 6.65387 6.08965 6.4125 6.32984L4.995 7.74734C4.87728 7.86376 4.84985 8.04361 4.9275 8.18984L5.19 8.68484C6.13278 10.4312 7.56695 11.8627 9.315 12.8023L9.81 13.0723C9.95623 13.15 10.1361 13.1226 10.2525 13.0048L11.67 11.5873C11.9102 11.346 12.2828 11.2967 12.5775 11.4673L15.4725 13.1548C15.6234 13.243 15.7248 13.3963 15.7468 13.5696C15.7688 13.743 15.7091 13.9167 15.585 14.0398L14.3175 15.3073C14.0357 15.5909 13.6523 15.7502 13.2525 15.7498H12.75Z" fill="#D4D4D4"/>
</g>
<defs>
<clipPath id="clip0_17_38">
<rect width="18" height="18" fill="white"/>
</clipPath>
</defs>
</svg>