<svg xmlns="http://www.w3.org/2000/svg" width="20" height="20" viewBox="0 0 20 24" fill="none">
<path d="M15.5763 3.98096H4.13062C3.48014 3.98096 2.8563 4.29554 2.39634 4.85549C1.93638 5.41544 1.67798 6.1749 1.67798 6.9668V16.9196C1.67798 17.7115 1.93638 18.471 2.39634 19.0309C2.8563 19.5909 3.48014 19.9055 4.13062 19.9055H15.5763C16.2268 19.9055 16.8506 19.5909 17.3105 19.0309C17.7705 18.471 18.0289 17.7115 18.0289 16.9196V6.9668C18.0289 6.1749 17.7705 5.41544 17.3105 4.85549C16.8506 4.29554 16.2268 3.98096 15.5763 3.98096ZM15.0285 5.97152L9.85344 10.6991L4.67837 5.97152H15.0285ZM15.5763 17.9149H4.13062C3.91379 17.9149 3.70585 17.81 3.55253 17.6234C3.39921 17.4367 3.31307 17.1836 3.31307 16.9196V7.21562L9.36292 12.7394C9.50443 12.8686 9.67655 12.9385 9.85344 12.9385C10.0303 12.9385 10.2025 12.8686 10.344 12.7394L16.3938 7.21562V16.9196C16.3938 17.1836 16.3077 17.4367 16.1544 17.6234C16.001 17.81 15.7931 17.9149 15.5763 17.9149Z" fill="#00D1FF"/>
</svg>