<svg xmlns="http://www.w3.org/2000/svg" width="19" height="19" viewBox="0 0 19 23" fill="none">
<path d="M18.0765 19.4559C18.0765 19.4559 16.948 20.7902 16.6715 21.1814C16.221 21.7602 15.6902 22.0335 14.9943 22.0335C14.9274 22.0335 14.856 22.0335 14.7891 22.0281C13.4644 21.9263 12.2333 21.3047 11.31 20.7742C8.78535 19.3058 6.56849 17.2212 4.72632 14.5793C3.2053 12.3768 2.18831 10.3405 1.51478 8.15407C1.09995 6.81972 0.948298 5.7801 1.0152 4.79943C1.05981 4.17244 1.26053 3.65263 1.63075 3.20785L3.15177 1.38048C3.37033 1.13397 3.60228 1 3.82976 1C4.11077 1 4.33826 1.20364 4.48099 1.37512C4.48545 1.38048 4.48991 1.38584 4.49437 1.3912C4.76646 1.69665 5.02517 2.01282 5.29726 2.35043C5.43553 2.52191 5.57827 2.6934 5.721 2.87024L6.93871 4.33321C7.41152 4.90125 7.41152 5.42641 6.93871 5.99445C6.80936 6.14986 6.68446 6.30526 6.55511 6.45531C6.18043 6.91617 6.47476 6.56256 6.0867 6.98055C6.07778 6.99127 6.06886 6.99663 6.0644 7.00734C5.6808 7.46821 5.75217 7.91835 5.83246 8.2238C5.83692 8.23988 5.84138 8.25596 5.84584 8.27203C6.16253 9.19376 6.60858 10.0619 7.28657 11.0961L7.29103 11.1015C8.52212 12.9235 9.82012 14.3436 11.2519 15.4315C11.4348 15.5708 11.6221 15.6833 11.8006 15.7905C11.9611 15.887 12.1128 15.9781 12.2422 16.0745C12.26 16.0852 12.2778 16.1013 12.2957 16.112C12.4473 16.2031 12.5901 16.246 12.7373 16.246C13.1075 16.246 13.3394 15.9673 13.4153 15.8762L14.2896 14.8258C14.4412 14.6436 14.6821 14.4239 14.9631 14.4239C15.2397 14.4239 15.4671 14.6329 15.6054 14.8151C15.6099 14.8205 15.6099 14.8205 15.6143 14.8258L18.072 17.7786C18.5315 18.3252 18.0765 19.4559 18.0765 19.4559Z" stroke="#00D1FF" stroke-width="1.32599" stroke-linecap="round" stroke-linejoin="round"/>
</svg>