<svg xmlns="http://www.w3.org/2000/svg" width="22" height="27" viewBox="0 0 22 27" fill="none">
<path d="M8.203 12.2537C8.92407 12.2537 9.62894 11.9934 10.2285 11.5057C10.828 11.018 11.2953 10.3248 11.5713 9.51382C11.8472 8.70281 11.9194 7.8104 11.7787 6.94944C11.6381 6.08848 11.2908 5.29764 10.781 4.67692C10.2711 4.05621 9.62147 3.63349 8.91426 3.46224C8.20705 3.29098 7.474 3.37888 6.80782 3.71481C6.14164 4.05074 5.57225 4.61961 5.17165 5.3495C4.77104 6.07939 4.55722 6.9375 4.55722 7.81533C4.55722 8.99246 4.94133 10.1214 5.62505 10.9537C6.30876 11.7861 7.23608 12.2537 8.203 12.2537ZM8.203 5.59614C8.56354 5.59614 8.91597 5.72629 9.21575 5.97014C9.51552 6.21399 9.74916 6.56058 9.88714 6.96608C10.0251 7.37159 10.0612 7.81779 9.99087 8.24827C9.92053 8.67875 9.74692 9.07417 9.49198 9.38453C9.23705 9.69489 8.91224 9.90625 8.55863 9.99187C8.20502 10.0775 7.8385 10.0336 7.50541 9.86559C7.17232 9.69762 6.88763 9.41319 6.68732 9.04824C6.48702 8.6833 6.38011 8.25424 6.38011 7.81533C6.38011 7.22676 6.57217 6.6623 6.91402 6.24613C7.25588 5.82995 7.71954 5.59614 8.203 5.59614Z" fill="#00D1FF"/>
<path d="M15.4946 14.473C16.0354 14.473 16.564 14.2778 17.0137 13.912C17.4633 13.5462 17.8138 13.0263 18.0208 12.4181C18.2277 11.8098 18.2819 11.1405 18.1764 10.4948C18.0709 9.84908 17.8104 9.25595 17.428 8.79041C17.0456 8.32487 16.5584 8.00783 16.028 7.87939C15.4976 7.75095 14.9478 7.81687 14.4482 8.06882C13.9486 8.32077 13.5215 8.74742 13.2211 9.29484C12.9206 9.84225 12.7602 10.4858 12.7602 11.1442C12.7602 12.0271 13.0483 12.8737 13.5611 13.498C14.0739 14.1223 14.7694 14.473 15.4946 14.473ZM15.4946 10.0346C15.6748 10.0346 15.8511 10.0997 16.0009 10.2216C16.1508 10.3435 16.2677 10.5168 16.3366 10.7196C16.4056 10.9223 16.4237 11.1454 16.3885 11.3607C16.3533 11.5759 16.2665 11.7736 16.1391 11.9288C16.0116 12.084 15.8492 12.1897 15.6724 12.2325C15.4956 12.2753 15.3123 12.2533 15.1458 12.1693C14.9792 12.0854 14.8369 11.9431 14.7367 11.7607C14.6366 11.5782 14.5831 11.3637 14.5831 11.1442C14.5831 10.8499 14.6792 10.5677 14.8501 10.3596C15.021 10.1515 15.2528 10.0346 15.4946 10.0346Z" fill="#00D1FF"/>
<path d="M15.4946 15.5825C14.4845 15.5839 13.5035 15.9937 12.7056 16.7476C11.8128 15.665 10.6767 14.9285 9.44059 14.6309C8.20446 14.3334 6.92363 14.4881 5.75963 15.0756C4.59563 15.663 3.60059 16.6569 2.89998 17.932C2.19938 19.207 1.8246 20.706 1.82289 22.24C1.82289 22.5343 1.91892 22.8166 2.08985 23.0246C2.26078 23.2327 2.49261 23.3496 2.73434 23.3496C2.97607 23.3496 3.2079 23.2327 3.37883 23.0246C3.54976 22.8166 3.64578 22.5343 3.64578 22.24C3.64578 20.7686 4.12592 19.3575 4.98056 18.317C5.83521 17.2766 6.99436 16.6921 8.20301 16.6921C9.41166 16.6921 10.5708 17.2766 11.4255 18.317C12.2801 19.3575 12.7602 20.7686 12.7602 22.24C12.7602 22.5343 12.8563 22.8166 13.0272 23.0246C13.1981 23.2327 13.43 23.3496 13.6717 23.3496C13.9134 23.3496 14.1452 23.2327 14.3162 23.0246C14.4871 22.8166 14.5831 22.5343 14.5831 22.24C14.5853 20.9401 14.3155 19.6608 13.7993 18.5229C14.2021 18.1354 14.6863 17.8938 15.1966 17.8257C15.707 17.7576 16.2227 17.8658 16.6849 18.1379C17.1471 18.4099 17.537 18.8349 17.81 19.3641C18.0831 19.8934 18.2283 20.5055 18.2289 21.1305C18.2289 21.4247 18.3249 21.707 18.4959 21.9151C18.6668 22.1231 18.8986 22.24 19.1404 22.24C19.3821 22.24 19.6139 22.1231 19.7848 21.9151C19.9558 21.707 20.0518 21.4247 20.0518 21.1305C20.0518 19.659 19.5717 18.2479 18.717 17.2074C17.8624 16.167 16.7032 15.5825 15.4946 15.5825Z" fill="#00D1FF"/>
</svg>