<svg xmlns="http://www.w3.org/2000/svg" width="10" height="10" viewBox="0 0 25 30" fill="none">
<path d="M12.0641 13.4626C12.8595 13.4626 13.637 13.1755 14.2983 12.6376C14.9596 12.0996 15.475 11.335 15.7794 10.4405C16.0838 9.54593 16.1634 8.56158 16.0082 7.61192C15.8531 6.66226 15.4701 5.78995 14.9077 5.10528C14.3453 4.42062 13.6287 3.95436 12.8486 3.76546C12.0686 3.57656 11.26 3.67351 10.5252 4.04405C9.79039 4.41458 9.16234 5.04207 8.72046 5.84715C8.27859 6.65223 8.04274 7.59875 8.04274 8.56701C8.04274 9.86541 8.46642 11.1106 9.22057 12.0287C9.97473 12.9468 10.9976 13.4626 12.0641 13.4626ZM12.0641 6.1192C12.4618 6.1192 12.8505 6.26276 13.1812 6.53173C13.5119 6.8007 13.7696 7.183 13.9218 7.63027C14.0739 8.07755 14.1138 8.56973 14.0362 9.04456C13.9586 9.51938 13.7671 9.95554 13.4859 10.2979C13.2047 10.6402 12.8464 10.8733 12.4564 10.9678C12.0663 11.0622 11.6621 11.0138 11.2947 10.8285C10.9273 10.6432 10.6132 10.3295 10.3923 9.92694C10.1714 9.5244 10.0534 9.05114 10.0534 8.56701C10.0534 7.91781 10.2653 7.2952 10.6423 6.83615C11.0194 6.37709 11.5308 6.1192 12.0641 6.1192Z" fill="#00D1FF"/>
<path d="M12.0641 15.9106C10.1977 15.9106 8.40768 16.8133 7.08791 18.42C5.76814 20.0266 5.0267 22.2058 5.0267 24.478C5.0267 24.8026 5.13262 25.1139 5.32116 25.3434C5.5097 25.5729 5.76541 25.7019 6.03205 25.7019C6.29868 25.7019 6.55439 25.5729 6.74293 25.3434C6.93147 25.1139 7.03739 24.8026 7.03739 24.478C7.03739 22.855 7.56699 21.2985 8.50968 20.1508C9.45238 19.0032 10.7309 18.3585 12.0641 18.3585C13.3973 18.3585 14.6758 19.0032 15.6185 20.1508C16.5612 21.2985 17.0908 22.855 17.0908 24.478C17.0908 24.8026 17.1968 25.1139 17.3853 25.3434C17.5738 25.5729 17.8295 25.7019 18.0962 25.7019C18.3628 25.7019 18.6185 25.5729 18.8071 25.3434C18.9956 25.1139 19.1015 24.8026 19.1015 24.478C19.1015 22.2058 18.3601 20.0266 17.0403 18.42C15.7205 16.8133 13.9306 15.9106 12.0641 15.9106Z" fill="#00D1FF"/>
</svg>